<?xml version="1.0" encoding="utf-8"?>
<!-- Generator: Adobe Illustrator 17.1.0, SVG Export Plug-In . SVG Version: 6.00 Build 0)  -->
<!DOCTYPE svg PUBLIC "-//W3C//DTD SVG 1.1//EN" "http://www.w3.org/Graphics/SVG/1.1/DTD/svg11.dtd">
<svg version="1.1" id="Layer_1" xmlns="http://www.w3.org/2000/svg" xmlns:xlink="http://www.w3.org/1999/xlink" x="0px" y="0px"
	 viewBox="0 0 107.9 84.6" enable-background="new 0 0 107.9 84.6" xml:space="preserve">
<g>
	<g>
		<defs>
			<rect id="SVGID_125_" x="332.3" y="-1538.1" width="1440" height="1907.9"/>
		</defs>
		<clipPath id="SVGID_2_">
			<use xlink:href="#SVGID_125_"  overflow="visible"/>
		</clipPath>
		<g clip-path="url(#SVGID_2_)">
		</g>
	</g>
</g>
<g>
	<path fill="#76B0D8" d="M48.5,65.3c0,5.1-2.1,9.6-6.2,13.5c-4.1,3.9-9,5.8-14.7,5.8c-8.9,0-15.7-2.9-20.4-8.8C2.4,70,0,61.8,0,51.5
		c0-9.6,4.1-19.4,12.3-29.2c8.2-9.8,18-17.2,29.5-22.3l5.3,8.6C38,13,30.9,18.1,25.7,24c-5.2,5.9-8.1,13-9,21.3h6.8
		c5,0,9.1,0.6,12.2,1.7c3.1,1.1,5.7,2.7,7.6,4.7c1.9,1.9,3.2,4.1,3.9,6.4C48.1,60.4,48.5,62.8,48.5,65.3z M107.9,65.3
		c0,5.1-2.1,9.6-6.2,13.5c-4.1,3.9-9,5.8-14.7,5.8c-8.9,0-15.7-2.9-20.4-8.8c-4.8-5.9-7.1-14-7.1-24.3c0-9.6,4.1-19.4,12.3-29.2
		c8.2-9.8,18-17.2,29.5-22.3l5.3,8.6C97.4,13,90.3,18.1,85.1,24c-5.2,5.9-8.1,13-9,21.3H83c5,0,9.1,0.6,12.2,1.7
		c3.1,1.1,5.7,2.7,7.6,4.7c1.9,1.9,3.2,4.1,3.9,6.4C107.5,60.4,107.9,62.8,107.9,65.3z"/>
</g>
</svg>
